# xmcd
#
# Track frame offsets: 
#        150
#        4739
#        12465
#        20191
#        27365
#        34539
#        41391
#        48243
#        55648
#        63053
#        69528
#        76003
#        84085
#        92167
#        98407
#        104647
#        113456
#        122265
#        131607
#        140949
#        153255
#        165561
#        174318
#        183075
#        190885
#        198695
#        207426
#        216157
#        223066
#        229975
#        235429
#        240883
#        250554
#        260225
#        265077
#        269929
#        274267
#        278605
#        285115
#        291625
#        297106
#        302587
#
# Disc length: 4091 seconds
#
# Revision: 0
# Processed by: cddbd v1.5.2PL0 Copyright (c) Steve Scherf et al.
# Submitted via: ExactAudioCopy v0.99pb5
#
DISCID=550ff92a
DTITLE=John Ganapes - Blues Rhythms You Can Use
DYEAR=2008
DGENRE=Learn Blues
TTITLE0=Tuning Notes
TTITLE1=Basic Spread_Track
TTITLE2=Basic Spread_Backing
TTITLE3=Spread Along the Neck_Track
TTITLE4=Spread Along the Neck_Backing
TTITLE5=Spread for Mr. Reed_Track
TTITLE6=Spread for Mr. Reed_Backing
TTITLE7=Plain Old Major Blues_Track
TTITLE8=Plain Old Major Blues_Backing
TTITLE9=Minor Triad Blues_Track
TTITLE10=Minor Triad Blues_Backing
TTITLE11=Simple Seventh Chord Rhythm_Track
TTITLE12=Simple Seventh Chord Rhythm_Backup
TTITLE13=Funky Blues_Track
TTITLE14=Funky Blues_Backup
TTITLE15=Ninth Chord Rhythm in A_Track
TTITLE16=Ninth Chord Rhythm in A_Backing
TTITLE17=High Nines in D_Track
TTITLE18=High Nines in D_Backing
TTITLE19=Sixes and Nines_Track
TTITLE20=Sixes and Nines_Backing
TTITLE21=Ninth Chord Study in Eb_Track
TTITLE22=Ninth Chord Study in Eb_Backing
TTITLE23=G Minor Blues_Track
TTITLE24=G Minor Blues_Backing
TTITLE25=D Minor Blues_Track
TTITLE26=D Minor Blues_Backing
TTITLE27=Got the Drive_Track
TTITLE28=Got the Drive_Backing
TTITLE29=Passing Chord Rhythm in A_Track
TTITLE30=Passing Chord Rhythm in A_Backing
TTITLE31=Triplet Stormy Rhythm_Track
TTITLE32=Triplet Stormy Rhythm_Backing
TTITLE33=Jump Blues in Ab_Track
TTITLE34=Jump Blues in Ab_Backing
TTITLE35=Rockin' Boogie in A_Track
TTITLE36=Rockin' Boogie in A_Backing
TTITLE37=Lead Rhythm in C_Track
TTITLE38=Lead Rhythm in C_Backing
TTITLE39=Rockin' Blues for Jimi_Track
TTITLE40=Rockin' Blues for Jimi_Backing
TTITLE41=Dominant Rhythm in G
EXTD=
EXTT0=
EXTT1=
EXTT2=
EXTT3=
EXTT4=
EXTT5=
EXTT6=
EXTT7=
EXTT8=
EXTT9=
EXTT10=
EXTT11=
EXTT12=
EXTT13=
EXTT14=
EXTT15=
EXTT16=
EXTT17=
EXTT18=
EXTT19=
EXTT20=
EXTT21=
EXTT22=
EXTT23=
EXTT24=
EXTT25=
EXTT26=
EXTT27=
EXTT28=
EXTT29=
EXTT30=
EXTT31=
EXTT32=
EXTT33=
EXTT34=
EXTT35=
EXTT36=
EXTT37=
EXTT38=
EXTT39=
EXTT40=
EXTT41=
PLAYORDER=
